<svg xmlns="http://www.w3.org/2000/svg" width="1200" height="900" viewBox="0 0 1200 900" role="img" aria-labelledby="title desc">
<title id="title">DeepSeek V4.1 Flash, 4 nodes: agent pressure curve</title>
<desc id="desc">Throughput, mean token latency, and expert batch size as active agent count rises to the memory limit.</desc>
<style>
  :root { color-scheme: light dark; }
  svg { background: #ffffff; color: #172033; font-family: Inter, Segoe UI, sans-serif; }
  .title { font-size: 24px; font-weight: 600; fill: currentColor; }
  .subtitle, .tick { font-size: 13px; fill: #526174; }
  .panel-title, .axis-title { font-size: 15px; font-weight: 600; fill: currentColor; }
  .frame { fill: none; stroke: #9aa7b7; stroke-width: 1; }
  .grid { stroke: #d8dee8; stroke-width: 1; }
  .series { fill: none; stroke: #2563eb; stroke-width: 3; stroke-linejoin: round; stroke-linecap: round; }
  .point { fill: #2563eb; }
</style>
<text x="92" y="42" class="title">DeepSeek V4.1 Flash · 4 nodes</text>
<text x="92" y="68" class="subtitle">100K context tokens · 80% resident KV · active agents swept independently to capacity</text>
<text x="92" y="83" class="panel-title">Aggregate decode throughput</text>
<rect x="92" y="105" width="1076" height="190" class="frame"/>
<line x1="92" y1="295.0" x2="1168" y2="295.0" class="grid"/>
<text x="80" y="299.0" text-anchor="end" class="tick">0.0</text>
<line x1="92" y1="247.5" x2="1168" y2="247.5" class="grid"/>
<text x="80" y="251.5" text-anchor="end" class="tick">270.2</text>
<line x1="92" y1="200.0" x2="1168" y2="200.0" class="grid"/>
<text x="80" y="204.0" text-anchor="end" class="tick">540.4</text>
<line x1="92" y1="152.5" x2="1168" y2="152.5" class="grid"/>
<text x="80" y="156.5" text-anchor="end" class="tick">810.5</text>
<line x1="92" y1="105.0" x2="1168" y2="105.0" class="grid"/>
<text x="80" y="109.0" text-anchor="end" class="tick">1080.7</text>
<polyline points="92.0,282.6 216.2,271.1 288.8,259.8 340.3,251.0 380.3,250.5 413.0,245.7 440.6,243.7 464.5,237.9 504.5,231.4 577.1,224.2 645.7,215.6 712.9,207.0 777.9,198.5 847.9,176.7 917.0,168.3 986.0,148.0 1054.1,138.2 1123.1,124.7 1168.0,119.1" class="series"/>
<circle cx="92.0" cy="282.6" r="3.5" class="point"><title>1 agents: 70.391 tokens / second</title></circle>
<circle cx="216.2" cy="271.1" r="3.5" class="point"><title>2 agents: 136.052 tokens / second</title></circle>
<circle cx="288.8" cy="259.8" r="3.5" class="point"><title>3 agents: 200.364 tokens / second</title></circle>
<circle cx="340.3" cy="251.0" r="3.5" class="point"><title>4 agents: 250.056 tokens / second</title></circle>
<circle cx="380.3" cy="250.5" r="3.5" class="point"><title>5 agents: 253.257 tokens / second</title></circle>
<circle cx="413.0" cy="245.7" r="3.5" class="point"><title>6 agents: 280.319 tokens / second</title></circle>
<circle cx="440.6" cy="243.7" r="3.5" class="point"><title>7 agents: 291.887 tokens / second</title></circle>
<circle cx="464.5" cy="237.9" r="3.5" class="point"><title>8 agents: 324.568 tokens / second</title></circle>
<circle cx="504.5" cy="231.4" r="3.5" class="point"><title>10 agents: 361.720 tokens / second</title></circle>
<circle cx="577.1" cy="224.2" r="3.5" class="point"><title>15 agents: 402.621 tokens / second</title></circle>
<circle cx="645.7" cy="215.6" r="3.5" class="point"><title>22 agents: 451.417 tokens / second</title></circle>
<circle cx="712.9" cy="207.0" r="3.5" class="point"><title>32 agents: 500.624 tokens / second</title></circle>
<circle cx="777.9" cy="198.5" r="3.5" class="point"><title>46 agents: 548.751 tokens / second</title></circle>
<circle cx="847.9" cy="176.7" r="3.5" class="point"><title>68 agents: 673.124 tokens / second</title></circle>
<circle cx="917.0" cy="168.3" r="3.5" class="point"><title>100 agents: 720.817 tokens / second</title></circle>
<circle cx="986.0" cy="148.0" r="3.5" class="point"><title>147 agents: 835.975 tokens / second</title></circle>
<circle cx="1054.1" cy="138.2" r="3.5" class="point"><title>215 agents: 892.097 tokens / second</title></circle>
<circle cx="1123.1" cy="124.7" r="3.5" class="point"><title>316 agents: 968.733 tokens / second</title></circle>
<circle cx="1168.0" cy="119.1" r="3.5" class="point"><title>406 agents: 1000.657 tokens / second</title></circle>
<text x="24" y="200.0" transform="rotate(-90 24 200.0)" text-anchor="middle" class="axis-title">tokens / second</text>
<text x="92" y="343" class="panel-title">Mean single-token latency</text>
<rect x="92" y="365" width="1076" height="190" class="frame"/>
<line x1="92" y1="555.0" x2="1168" y2="555.0" class="grid"/>
<text x="80" y="559.0" text-anchor="end" class="tick">0.0</text>
<line x1="92" y1="507.5" x2="1168" y2="507.5" class="grid"/>
<text x="80" y="511.5" text-anchor="end" class="tick">105.2</text>
<line x1="92" y1="460.0" x2="1168" y2="460.0" class="grid"/>
<text x="80" y="464.0" text-anchor="end" class="tick">210.4</text>
<line x1="92" y1="412.5" x2="1168" y2="412.5" class="grid"/>
<text x="80" y="416.5" text-anchor="end" class="tick">315.6</text>
<line x1="92" y1="365.0" x2="1168" y2="365.0" class="grid"/>
<text x="80" y="369.0" text-anchor="end" class="tick">420.8</text>
<polyline points="92.0,548.6 216.2,548.4 288.8,548.3 340.3,547.9 380.3,546.1 413.0,545.2 440.6,544.3 464.5,544.0 504.5,542.3 577.1,538.6 645.7,533.7 712.9,527.4 777.9,518.8 847.9,509.5 917.0,496.0 986.0,478.7 1054.1,452.7 1123.1,412.5 1168.0,379.1" class="series"/>
<circle cx="92.0" cy="548.6" r="3.5" class="point"><title>1 agents: 14.206 milliseconds</title></circle>
<circle cx="216.2" cy="548.4" r="3.5" class="point"><title>2 agents: 14.588 milliseconds</title></circle>
<circle cx="288.8" cy="548.3" r="3.5" class="point"><title>3 agents: 14.917 milliseconds</title></circle>
<circle cx="340.3" cy="547.9" r="3.5" class="point"><title>4 agents: 15.734 milliseconds</title></circle>
<circle cx="380.3" cy="546.1" r="3.5" class="point"><title>5 agents: 19.724 milliseconds</title></circle>
<circle cx="413.0" cy="545.2" r="3.5" class="point"><title>6 agents: 21.698 milliseconds</title></circle>
<circle cx="440.6" cy="544.3" r="3.5" class="point"><title>7 agents: 23.632 milliseconds</title></circle>
<circle cx="464.5" cy="544.0" r="3.5" class="point"><title>8 agents: 24.454 milliseconds</title></circle>
<circle cx="504.5" cy="542.3" r="3.5" class="point"><title>10 agents: 28.049 milliseconds</title></circle>
<circle cx="577.1" cy="538.6" r="3.5" class="point"><title>15 agents: 36.350 milliseconds</title></circle>
<circle cx="645.7" cy="533.7" r="3.5" class="point"><title>22 agents: 47.252 milliseconds</title></circle>
<circle cx="712.9" cy="527.4" r="3.5" class="point"><title>32 agents: 61.224 milliseconds</title></circle>
<circle cx="777.9" cy="518.8" r="3.5" class="point"><title>46 agents: 80.183 milliseconds</title></circle>
<circle cx="847.9" cy="509.5" r="3.5" class="point"><title>68 agents: 100.684 milliseconds</title></circle>
<circle cx="917.0" cy="496.0" r="3.5" class="point"><title>100 agents: 130.672 milliseconds</title></circle>
<circle cx="986.0" cy="478.7" r="3.5" class="point"><title>147 agents: 169.084 milliseconds</title></circle>
<circle cx="1054.1" cy="452.7" r="3.5" class="point"><title>215 agents: 226.585 milliseconds</title></circle>
<circle cx="1123.1" cy="412.5" r="3.5" class="point"><title>316 agents: 315.520 milliseconds</title></circle>
<circle cx="1168.0" cy="379.1" r="3.5" class="point"><title>406 agents: 389.656 milliseconds</title></circle>
<text x="24" y="460.0" transform="rotate(-90 24 460.0)" text-anchor="middle" class="axis-title">milliseconds</text>
<text x="92" y="603" class="panel-title">Mean executed expert batch</text>
<rect x="92" y="625" width="1076" height="190" class="frame"/>
<line x1="92" y1="815.0" x2="1168" y2="815.0" class="grid"/>
<text x="80" y="819.0" text-anchor="end" class="tick">0.0</text>
<line x1="92" y1="767.5" x2="1168" y2="767.5" class="grid"/>
<text x="80" y="771.5" text-anchor="end" class="tick">1.4</text>
<line x1="92" y1="720.0" x2="1168" y2="720.0" class="grid"/>
<text x="80" y="724.0" text-anchor="end" class="tick">2.7</text>
<line x1="92" y1="672.5" x2="1168" y2="672.5" class="grid"/>
<text x="80" y="676.5" text-anchor="end" class="tick">4.1</text>
<line x1="92" y1="625.0" x2="1168" y2="625.0" class="grid"/>
<text x="80" y="629.0" text-anchor="end" class="tick">5.4</text>
<polyline points="92.0,780.1 216.2,780.0 288.8,779.9 340.3,779.8 380.3,779.4 413.0,779.4 440.6,779.2 464.5,778.5 504.5,778.2 577.1,776.5 645.7,774.0 712.9,771.3 777.9,765.8 847.9,753.4 917.0,737.4 986.0,712.3 1054.1,685.7 1123.1,662.2 1168.0,639.1" class="series"/>
<circle cx="92.0" cy="780.1" r="3.5" class="point"><title>1 agents: 1.000 expert branches / kernel</title></circle>
<circle cx="216.2" cy="780.0" r="3.5" class="point"><title>2 agents: 1.001 expert branches / kernel</title></circle>
<circle cx="288.8" cy="779.9" r="3.5" class="point"><title>3 agents: 1.004 expert branches / kernel</title></circle>
<circle cx="340.3" cy="779.8" r="3.5" class="point"><title>4 agents: 1.009 expert branches / kernel</title></circle>
<circle cx="380.3" cy="779.4" r="3.5" class="point"><title>5 agents: 1.018 expert branches / kernel</title></circle>
<circle cx="413.0" cy="779.4" r="3.5" class="point"><title>6 agents: 1.020 expert branches / kernel</title></circle>
<circle cx="440.6" cy="779.2" r="3.5" class="point"><title>7 agents: 1.026 expert branches / kernel</title></circle>
<circle cx="464.5" cy="778.5" r="3.5" class="point"><title>8 agents: 1.046 expert branches / kernel</title></circle>
<circle cx="504.5" cy="778.2" r="3.5" class="point"><title>10 agents: 1.055 expert branches / kernel</title></circle>
<circle cx="577.1" cy="776.5" r="3.5" class="point"><title>15 agents: 1.102 expert branches / kernel</title></circle>
<circle cx="645.7" cy="774.0" r="3.5" class="point"><title>22 agents: 1.172 expert branches / kernel</title></circle>
<circle cx="712.9" cy="771.3" r="3.5" class="point"><title>32 agents: 1.251 expert branches / kernel</title></circle>
<circle cx="777.9" cy="765.8" r="3.5" class="point"><title>46 agents: 1.409 expert branches / kernel</title></circle>
<circle cx="847.9" cy="753.4" r="3.5" class="point"><title>68 agents: 1.764 expert branches / kernel</title></circle>
<circle cx="917.0" cy="737.4" r="3.5" class="point"><title>100 agents: 2.221 expert branches / kernel</title></circle>
<circle cx="986.0" cy="712.3" r="3.5" class="point"><title>147 agents: 2.940 expert branches / kernel</title></circle>
<circle cx="1054.1" cy="685.7" r="3.5" class="point"><title>215 agents: 3.700 expert branches / kernel</title></circle>
<circle cx="1123.1" cy="662.2" r="3.5" class="point"><title>316 agents: 4.372 expert branches / kernel</title></circle>
<circle cx="1168.0" cy="639.1" r="3.5" class="point"><title>406 agents: 5.036 expert branches / kernel</title></circle>
<text x="24" y="720.0" transform="rotate(-90 24 720.0)" text-anchor="middle" class="axis-title">expert branches / kernel</text>
<text x="92.0" y="844" text-anchor="middle" class="tick">1</text><text x="340.3" y="844" text-anchor="middle" class="tick">4</text><text x="440.6" y="844" text-anchor="middle" class="tick">7</text><text x="577.1" y="844" text-anchor="middle" class="tick">15</text><text x="777.9" y="844" text-anchor="middle" class="tick">46</text><text x="986.0" y="844" text-anchor="middle" class="tick">147</text><text x="1168.0" y="844" text-anchor="middle" class="tick">406</text>
<text x="630.0" y="878" text-anchor="middle" class="axis-title">Continuously active agents (log scale)</text>
</svg>