<svg xmlns="http://www.w3.org/2000/svg" width="1200" height="900" viewBox="0 0 1200 900" role="img" aria-labelledby="title desc">
<title id="title">Kimi K3, 4 nodes: agent pressure curve</title>
<desc id="desc">Throughput, mean token latency, and expert batch size as active agent count rises to the memory limit.</desc>
<style>
  :root { color-scheme: light dark; }
  svg { background: #ffffff; color: #172033; font-family: Inter, Segoe UI, sans-serif; }
  .title { font-size: 24px; font-weight: 600; fill: currentColor; }
  .subtitle, .tick { font-size: 13px; fill: #526174; }
  .panel-title, .axis-title { font-size: 15px; font-weight: 600; fill: currentColor; }
  .frame { fill: none; stroke: #9aa7b7; stroke-width: 1; }
  .grid { stroke: #d8dee8; stroke-width: 1; }
  .series { fill: none; stroke: #2563eb; stroke-width: 3; stroke-linejoin: round; stroke-linecap: round; }
  .point { fill: #2563eb; }
</style>
<text x="92" y="42" class="title">Kimi K3 · 4 nodes</text>
<text x="92" y="68" class="subtitle">100K context tokens · 80% resident KV · active agents swept independently to capacity</text>
<text x="92" y="83" class="panel-title">Aggregate decode throughput</text>
<rect x="92" y="105" width="1076" height="190" class="frame"/>
<line x1="92" y1="295.0" x2="1168" y2="295.0" class="grid"/>
<text x="80" y="299.0" text-anchor="end" class="tick">0.0</text>
<line x1="92" y1="247.5" x2="1168" y2="247.5" class="grid"/>
<text x="80" y="251.5" text-anchor="end" class="tick">96.1</text>
<line x1="92" y1="200.0" x2="1168" y2="200.0" class="grid"/>
<text x="80" y="204.0" text-anchor="end" class="tick">192.2</text>
<line x1="92" y1="152.5" x2="1168" y2="152.5" class="grid"/>
<text x="80" y="156.5" text-anchor="end" class="tick">288.2</text>
<line x1="92" y1="105.0" x2="1168" y2="105.0" class="grid"/>
<text x="80" y="109.0" text-anchor="end" class="tick">384.3</text>
<polyline points="92.0,284.4 246.0,274.9 336.0,267.4 399.9,261.0 449.5,264.6 490.0,261.3 524.2,258.0 553.9,254.8 603.5,249.7 693.5,238.1 778.6,230.1 861.8,215.3 942.4,197.9 1029.2,173.5 1114.9,141.8 1168.0,119.1" class="series"/>
<circle cx="92.0" cy="284.4" r="3.5" class="point"><title>1 agents: 21.450 tokens / second</title></circle>
<circle cx="246.0" cy="274.9" r="3.5" class="point"><title>2 agents: 40.718 tokens / second</title></circle>
<circle cx="336.0" cy="267.4" r="3.5" class="point"><title>3 agents: 55.745 tokens / second</title></circle>
<circle cx="399.9" cy="261.0" r="3.5" class="point"><title>4 agents: 68.748 tokens / second</title></circle>
<circle cx="449.5" cy="264.6" r="3.5" class="point"><title>5 agents: 61.403 tokens / second</title></circle>
<circle cx="490.0" cy="261.3" r="3.5" class="point"><title>6 agents: 68.153 tokens / second</title></circle>
<circle cx="524.2" cy="258.0" r="3.5" class="point"><title>7 agents: 74.752 tokens / second</title></circle>
<circle cx="553.9" cy="254.8" r="3.5" class="point"><title>8 agents: 81.299 tokens / second</title></circle>
<circle cx="603.5" cy="249.7" r="3.5" class="point"><title>10 agents: 91.553 tokens / second</title></circle>
<circle cx="693.5" cy="238.1" r="3.5" class="point"><title>15 agents: 115.016 tokens / second</title></circle>
<circle cx="778.6" cy="230.1" r="3.5" class="point"><title>22 agents: 131.299 tokens / second</title></circle>
<circle cx="861.8" cy="215.3" r="3.5" class="point"><title>32 agents: 161.254 tokens / second</title></circle>
<circle cx="942.4" cy="197.9" r="3.5" class="point"><title>46 agents: 196.444 tokens / second</title></circle>
<circle cx="1029.2" cy="173.5" r="3.5" class="point"><title>68 agents: 245.722 tokens / second</title></circle>
<circle cx="1114.9" cy="141.8" r="3.5" class="point"><title>100 agents: 309.987 tokens / second</title></circle>
<circle cx="1168.0" cy="119.1" r="3.5" class="point"><title>127 agents: 355.864 tokens / second</title></circle>
<text x="24" y="200.0" transform="rotate(-90 24 200.0)" text-anchor="middle" class="axis-title">tokens / second</text>
<text x="92" y="343" class="panel-title">Mean single-token latency</text>
<rect x="92" y="365" width="1076" height="190" class="frame"/>
<line x1="92" y1="555.0" x2="1168" y2="555.0" class="grid"/>
<text x="80" y="559.0" text-anchor="end" class="tick">0.0</text>
<line x1="92" y1="507.5" x2="1168" y2="507.5" class="grid"/>
<text x="80" y="511.5" text-anchor="end" class="tick">95.9</text>
<line x1="92" y1="460.0" x2="1168" y2="460.0" class="grid"/>
<text x="80" y="464.0" text-anchor="end" class="tick">191.8</text>
<line x1="92" y1="412.5" x2="1168" y2="412.5" class="grid"/>
<text x="80" y="416.5" text-anchor="end" class="tick">287.6</text>
<line x1="92" y1="365.0" x2="1168" y2="365.0" class="grid"/>
<text x="80" y="369.0" text-anchor="end" class="tick">383.5</text>
<polyline points="92.0,531.9 246.0,530.7 336.0,528.5 399.9,526.3 449.5,514.8 490.0,511.7 524.2,509.1 553.9,506.7 603.5,501.8 693.5,491.5 778.6,475.0 861.8,458.0 942.4,441.1 1029.2,419.6 1114.9,396.0 1168.0,379.1" class="series"/>
<circle cx="92.0" cy="531.9" r="3.5" class="point"><title>1 agents: 46.620 milliseconds</title></circle>
<circle cx="246.0" cy="530.7" r="3.5" class="point"><title>2 agents: 49.107 milliseconds</title></circle>
<circle cx="336.0" cy="528.5" r="3.5" class="point"><title>3 agents: 53.426 milliseconds</title></circle>
<circle cx="399.9" cy="526.3" r="3.5" class="point"><title>4 agents: 57.982 milliseconds</title></circle>
<circle cx="449.5" cy="514.8" r="3.5" class="point"><title>5 agents: 81.213 milliseconds</title></circle>
<circle cx="490.0" cy="511.7" r="3.5" class="point"><title>6 agents: 87.403 milliseconds</title></circle>
<circle cx="524.2" cy="509.1" r="3.5" class="point"><title>7 agents: 92.689 milliseconds</title></circle>
<circle cx="553.9" cy="506.7" r="3.5" class="point"><title>8 agents: 97.519 milliseconds</title></circle>
<circle cx="603.5" cy="501.8" r="3.5" class="point"><title>10 agents: 107.363 milliseconds</title></circle>
<circle cx="693.5" cy="491.5" r="3.5" class="point"><title>15 agents: 128.279 milliseconds</title></circle>
<circle cx="778.6" cy="475.0" r="3.5" class="point"><title>22 agents: 161.429 milliseconds</title></circle>
<circle cx="861.8" cy="458.0" r="3.5" class="point"><title>32 agents: 195.861 milliseconds</title></circle>
<circle cx="942.4" cy="441.1" r="3.5" class="point"><title>46 agents: 229.816 milliseconds</title></circle>
<circle cx="1029.2" cy="419.6" r="3.5" class="point"><title>68 agents: 273.323 milliseconds</title></circle>
<circle cx="1114.9" cy="396.0" r="3.5" class="point"><title>100 agents: 320.887 milliseconds</title></circle>
<circle cx="1168.0" cy="379.1" r="3.5" class="point"><title>127 agents: 355.117 milliseconds</title></circle>
<text x="24" y="460.0" transform="rotate(-90 24 460.0)" text-anchor="middle" class="axis-title">milliseconds</text>
<text x="92" y="603" class="panel-title">Mean executed expert batch</text>
<rect x="92" y="625" width="1076" height="190" class="frame"/>
<line x1="92" y1="815.0" x2="1168" y2="815.0" class="grid"/>
<text x="80" y="819.0" text-anchor="end" class="tick">0.0</text>
<line x1="92" y1="767.5" x2="1168" y2="767.5" class="grid"/>
<text x="80" y="771.5" text-anchor="end" class="tick">0.8</text>
<line x1="92" y1="720.0" x2="1168" y2="720.0" class="grid"/>
<text x="80" y="724.0" text-anchor="end" class="tick">1.6</text>
<line x1="92" y1="672.5" x2="1168" y2="672.5" class="grid"/>
<text x="80" y="676.5" text-anchor="end" class="tick">2.4</text>
<line x1="92" y1="625.0" x2="1168" y2="625.0" class="grid"/>
<text x="80" y="629.0" text-anchor="end" class="tick">3.1</text>
<polyline points="92.0,754.6 246.0,754.5 336.0,754.0 399.9,753.9 449.5,753.0 490.0,752.8 524.2,751.9 553.9,751.7 603.5,749.2 693.5,747.0 778.6,742.2 861.8,733.7 942.4,720.0 1029.2,698.1 1114.9,665.7 1168.0,639.1" class="series"/>
<circle cx="92.0" cy="754.6" r="3.5" class="point"><title>1 agents: 1.000 expert branches / kernel</title></circle>
<circle cx="246.0" cy="754.5" r="3.5" class="point"><title>2 agents: 1.001 expert branches / kernel</title></circle>
<circle cx="336.0" cy="754.0" r="3.5" class="point"><title>3 agents: 1.010 expert branches / kernel</title></circle>
<circle cx="399.9" cy="753.9" r="3.5" class="point"><title>4 agents: 1.011 expert branches / kernel</title></circle>
<circle cx="449.5" cy="753.0" r="3.5" class="point"><title>5 agents: 1.025 expert branches / kernel</title></circle>
<circle cx="490.0" cy="752.8" r="3.5" class="point"><title>6 agents: 1.029 expert branches / kernel</title></circle>
<circle cx="524.2" cy="751.9" r="3.5" class="point"><title>7 agents: 1.044 expert branches / kernel</title></circle>
<circle cx="553.9" cy="751.7" r="3.5" class="point"><title>8 agents: 1.048 expert branches / kernel</title></circle>
<circle cx="603.5" cy="749.2" r="3.5" class="point"><title>10 agents: 1.089 expert branches / kernel</title></circle>
<circle cx="693.5" cy="747.0" r="3.5" class="point"><title>15 agents: 1.125 expert branches / kernel</title></circle>
<circle cx="778.6" cy="742.2" r="3.5" class="point"><title>22 agents: 1.204 expert branches / kernel</title></circle>
<circle cx="861.8" cy="733.7" r="3.5" class="point"><title>32 agents: 1.345 expert branches / kernel</title></circle>
<circle cx="942.4" cy="720.0" r="3.5" class="point"><title>46 agents: 1.571 expert branches / kernel</title></circle>
<circle cx="1029.2" cy="698.1" r="3.5" class="point"><title>68 agents: 1.934 expert branches / kernel</title></circle>
<circle cx="1114.9" cy="665.7" r="3.5" class="point"><title>100 agents: 2.470 expert branches / kernel</title></circle>
<circle cx="1168.0" cy="639.1" r="3.5" class="point"><title>127 agents: 2.911 expert branches / kernel</title></circle>
<text x="24" y="720.0" transform="rotate(-90 24 720.0)" text-anchor="middle" class="axis-title">expert branches / kernel</text>
<text x="92.0" y="844" text-anchor="middle" class="tick">1</text><text x="336.0" y="844" text-anchor="middle" class="tick">3</text><text x="449.5" y="844" text-anchor="middle" class="tick">5</text><text x="524.2" y="844" text-anchor="middle" class="tick">7</text><text x="603.5" y="844" text-anchor="middle" class="tick">10</text><text x="778.6" y="844" text-anchor="middle" class="tick">22</text><text x="942.4" y="844" text-anchor="middle" class="tick">46</text><text x="1114.9" y="844" text-anchor="middle" class="tick">100</text><text x="1168.0" y="844" text-anchor="middle" class="tick">127</text>
<text x="630.0" y="878" text-anchor="middle" class="axis-title">Continuously active agents (log scale)</text>
</svg>